<?xml version="1.0" encoding="UTF-8"?>
<svg xmlns="http://www.w3.org/2000/svg" width="390" height="844" viewBox="0 0 390 844" role="img" aria-label="Placeholder for the Home screen">
  <rect width="390" height="844" rx="44" fill="#2A121C"/>
  <rect x="10" y="10" width="370" height="824" rx="36" fill="#F8F3F5"/>
  <rect x="10" y="10" width="370" height="72" rx="36" fill="#6B1D3A"/>
  <rect x="10" y="46" width="370" height="36" fill="#6B1D3A"/>
  <circle cx="195" cy="26" r="6" fill="#FBF6F8" opacity="0.35"/>
  <text x="195" y="70" text-anchor="middle" fill="#FBF6F8" font-family="Arial, Helvetica, sans-serif" font-size="17" font-weight="700">Home</text>
  
  <text x="36" y="126" fill="#2A121C" font-family="Arial, Helvetica, sans-serif" font-size="22" font-weight="700">Good morning</text>
  <text x="36" y="152" fill="#6A4A58" font-family="Arial, Helvetica, sans-serif" font-size="13">6 pieces · 2 outfits</text>
  <rect x="36" y="172" width="78" height="28" rx="14" fill="#6B1D3A"/>
  <text x="75" y="191" text-anchor="middle" fill="#FBF6F8" font-size="11" font-family="Arial, Helvetica, sans-serif">All</text>
  <rect x="122" y="172" width="88" height="28" rx="14" fill="#E6D6DC"/>
  <text x="166" y="191" text-anchor="middle" fill="#6B1D3A" font-size="11" font-family="Arial, Helvetica, sans-serif">Tops</text>
  <rect x="218" y="172" width="96" height="28" rx="14" fill="#E6D6DC"/>
  <text x="266" y="191" text-anchor="middle" fill="#6B1D3A" font-size="11" font-family="Arial, Helvetica, sans-serif">Outerwear</text>
  <rect x="36" y="220" width="148" height="154" rx="18" fill="#6B1D3A"/>
  <rect x="196" y="220" width="148" height="154" rx="18" fill="#7A4A6B"/>
  <rect x="36" y="390" width="148" height="154" rx="18" fill="#A67C96"/>
  <rect x="196" y="390" width="148" height="154" rx="18" fill="#4A1228"/>
  <rect x="36" y="560" width="148" height="154" rx="18" fill="#8E3A58"/>
  <rect x="196" y="560" width="148" height="154" rx="18" fill="#563344"/>

  <rect x="118" y="788" width="154" height="22" rx="11" fill="#2A121C" opacity="0.12"/>
  <text x="195" y="804" text-anchor="middle" fill="#6B1D3A" font-family="Arial, Helvetica, sans-serif" font-size="11" font-weight="700">PLACEHOLDER</text>
</svg>
